<svg xmlns="http://www.w3.org/2000/svg" version="1.1" xmlns:xlink="http://www.w3.org/1999/xlink" width="1500" height="1500" viewBox="0 0 1500 1500"><rect width="1500" height="1500" x="0" y="0" id="background" stroke="transparent" fill="#ffffff"></rect><svg xml:space="preserve" width="1000" height="1000" data-version="2" data-id="lg_qToNqtxpECfG8crPFm" viewBox="0 0 504 242" x="250" y="250"><rect width="100%" height="100%" fill="transparent"></rect><path fill="#111" d="m305.949 14.524-11.39 1.05v86.19l11.39 1.05v1.05h-32.22v-1.05l10.74-1.05v-79.78h-.52l-31.58 83.98h-1.31l-35.23-84.11h-.53v74.02q0 3.14.79 4.39.78 1.24 3.14 1.5l9.3 1.05v1.05h-28.69v-1.05l9.44-1.05q2.35-.26 3.14-1.5.79-1.25.79-4.39v-78.6q-.92-1.57-2.3-2.16-1.37-.59-3.99-.59h-6.03v-1.05h22.4l32.23 76.9h.52l28.82-76.9h21.09zm70.09 61.7 1.44.13-3.28 27.51h-64.19v-1.05l10.75-1.05v-86.19l-10.75-1.05v-1.05h64.33l1.83 24.63-1.31.13-7.34-18.34q-1.18-3.01-2.55-3.93-1.38-.92-4.52-.92h-29.61v40.22h19.39q3.15 0 4.46-1.05t1.83-4.06l2.23-10.61h1.57v33.53h-1.57l-2.23-10.61q-.52-3.01-1.83-4.06-1.31-1.05-4.46-1.05h-19.39v44.94h29.35q3.14 0 4.58-.98 1.44-.99 2.62-3.87zm71.39-55.81q7.99 5.64 12.45 15.46 4.45 9.83 4.45 22.27 0 12.45-4.45 22.66-4.46 10.22-12.45 15.99-5.11 3.66-11.72 5.37-6.62 1.7-16.18 1.7h-34.85v-1.05l10.75-1.05v-86.19l-10.75-1.05v-1.05h34.85q17.82 0 27.9 6.94m-4.71 74.15q4.19-5.37 6.61-15.26 2.43-9.89 2.43-21.81 0-11.66-2.3-20.57-2.29-8.91-6.74-14.15-3.67-4.32-9.04-6.03-5.37-1.7-15.33-1.7h-12.84v87.25h12.84q10.48 0 15.72-1.71 5.24-1.7 8.65-6.02m-177.38 123.26q-3.8 4.19-9.36 6.68-5.57 2.49-11.47 2.49-13.75 0-21.22-11.86-7.46-11.85-7.46-33.6 0-21.88 7.46-33.8 7.47-11.92 21.36-11.92 7.59 0 13.88 3.47 6.29 3.47 10.22 9.89 3.93 6.55 5.76 16.64l1.84-.52-1.31-29.48h-1.71l-3.14 6.29q-7.6-4.06-13.82-5.96-6.22-1.9-12.12-1.9-11.26 0-20.7 6.29-9.43 6.28-14.86 17.16-5.44 10.87-5.44 23.84 0 13.1 5.44 23.91 5.43 10.8 14.93 17.09 9.5 6.29 20.89 6.29 6.42 0 13.3-2.49 6.88-2.49 12.77-6.81l4.46 7.2h1.7v-30.13l-1.7-.26q-3.28 14.28-9.7 21.49"></path><path fill="#111" d="m356.519 224.374 10.87 1.31v1.04h-32.09v-1.04l10.74-1.31-12.31-33.54h-31.71l-10.87 28.95q-.52 1.44-.52 2.36 0 1.44.85 2.03.85.59 3.08.85l7.99.66v1.04h-27.91v-1.04l7.34-.66q3.28-.26 4.65-1.31 1.38-1.05 2.42-3.93l32.1-85.54h2.36zm-53.71-35.64h30.13l-14.67-39.95h-.53z"></path><path fill="#111" d="m426.209 136.334 2.1 26.07-1.05.13-7.86-19.78q-1.18-3.01-2.56-3.93-1.37-.91-4.51-.91h-26.6v40.21h19q3.14 0 4.45-1.04 1.31-1.05 1.84-4.07l2.22-10.61h1.57v33.54h-1.57l-2.22-10.61q-.53-3.01-1.84-4.06-1.31-1.05-4.45-1.05h-19v44.41l12.84 1.05v1.04h-33.67v-1.04l10.75-1.05v-86.2l-10.75-1.05v-1.05zm71.53 62.75 1.44.13-3.28 27.51h-64.19v-1.04l10.75-1.05v-86.2l-10.75-1.05v-1.05h64.32l1.84 24.63-1.31.13-7.34-18.34q-1.18-3.01-2.55-3.93-1.38-.91-4.52-.91h-29.61v40.21h19.39q3.14 0 4.45-1.04 1.31-1.05 1.84-4.07l2.23-10.61h1.57v33.54h-1.57l-2.23-10.61q-.53-3.01-1.84-4.06-1.31-1.05-4.45-1.05h-19.39v44.93h29.35q3.14 0 4.58-.98t2.62-3.86z"></path><path fill="#68b6ff" d="M49.769 211.364q-.39-.17-.39-.91t4.85-7.73q4.84-7 4.84-7.49 0-.49-1.7-.49-2.88 0-4.36.5-.79.26-1.4.96-1.2 1.37-1.32 1.37-.68 0-.68-1.04 0-2.12.35-2.74.35-.62 1.55-.62h5.2l.53.01q.53.01 1.04.01l1.56.02q2.19 0 2.53.04.88.1.88.56 0 .85-1.05 2.52l-4.32 6.48q-4.24 6.36-4.24 6.72 0 .53 1.69.53 3.92 0 5.31-.6.85-.35 1.57-1.43.71-1.07 1.25-1.07.32 0 .32.95 0 2.41-.65 3.2-.39.49-2.13.49h-3.59l-5.64-.07q-1.61 0-2-.17m23.2-5.93h-.22q-1.73 0-2.89.77-1.15.77-1.15 1.92v.26q0 .67.42 1.21.41.53 1.07.53l.16.03h.39q1.38 0 2.25-1.12.38-.49.38-2.01v-.23l.01-.32v-.32q0-.72-.42-.72m-6.41-4.26q0-.98 1.55-1.75t3.21-.77h.11q1.58 0 2.53.38 1.92.77 2.2 3.25.03.25.03 3.31 0 3.07.16 3.59.17.53.9.78t.73.48q0 .47-.48.72-.94.5-1.86.5-.92 0-1.37-.42-.8-.75-.85-.75-.05 0-1.49.67-1.44.66-2.52.66-1.62 0-2.54-.89-.93-.9-.93-2.18v-.33q0-1.37 1.19-2.41t4.27-1.62q1.12-.21 1.41-.4.58-.37.58-1.5 0-1.14-.6-1.74-.61-.61-1.63-.61-1.01 0-1.95 1.18-.95 1.18-1.72 1.18-.93 0-.93-1.33m19.01-1.67h-.34q-.7 0-1.36.8-.66.8-.66 1.87l-.02.21-.02.33v.34l.02.11q0 1.37.59 2.21.59.85 1.77.85h.09q.91 0 1.55-.71.65-.72.65-1.89v-.51q-.04-.32-.04-.52 0-1.25-.69-2.17-.69-.92-1.54-.92m-.52 11.72h-.65q-.92 0-1.57.64-.65.65-.65 1.62v.11q0 1.12.89 1.76.88.65 2.41.65h.34q1.85 0 2.97-.84 1.12-.85 1.12-1.98l-.01-.11q0-.75-.62-1.2-.62-.46-1.47-.46-.52-.06-.76-.06l-.45-.04h-.22l-.79-.06zm7.46-11.87q0 .75-.95.96-.95.2-.95.78l.04.28.05.31.07.35q.06.43.06 1.22t-.44 1.64q-1.26 2.33-4.83 2.55-1.15.08-1.46.2-.69.27-.69.89t1.02.87q.14.04 2.62.25 2.48.19 3.31.62 1.75.87 1.75 2.51 0 2.17-1.93 3.52-1.93 1.36-5.06 1.36-2.2 0-3.66-.84-.67-.38-1.09-1-.41-.61-.41-1.27 0-1.17.7-1.95 1.12-1.24 1.12-1.32 0-.08-.49-.7t-.49-1.29q0-.67.64-1.46.64-.78.64-.87 0-.1-.79-1.35-.79-1.26-.79-2.4 0-1.13.49-2.01 1.38-2.52 5.15-2.52h.38l1.83.12.68.02q.34.02.7.02l1.39-.1q1.39 0 1.39.61m8.95 6.08h-.22q-1.73 0-2.89.77-1.15.77-1.15 1.92v.26q0 .67.42 1.21.41.53 1.07.53l.16.03h.39q1.38 0 2.25-1.12.38-.49.38-2.01v-.23l.01-.32v-.32q0-.72-.42-.72m-6.41-4.26q0-.98 1.55-1.75t3.21-.77h.11q1.58 0 2.53.38 1.92.77 2.2 3.25.03.25.03 3.31 0 3.07.16 3.59.17.53.9.78t.73.48q0 .47-.48.72-.94.5-1.86.5-.92 0-1.37-.42-.8-.75-.85-.75-.06 0-1.49.67-1.44.66-2.52.66-1.62 0-2.54-.89-.93-.9-.93-2.18v-.33q0-1.37 1.19-2.41t4.27-1.62q1.12-.21 1.41-.4.58-.37.58-1.5 0-1.14-.61-1.74-.6-.61-1.62-.61-1.01 0-1.95 1.18-.95 1.18-1.72 1.18-.93 0-.93-1.33m13.55 9.82v-.28q0-.46 3.39-5.18t3.39-4.97q0-.26-1.66-.26t-2.32.28q-.66.27-1.2 1.05-.54.78-1.05.78-.37 0-.37-1.21 0-2.3.83-2.3h.31l.7.03q.73.02 1.1.02l4.06.04 2.21-.04q.96 0 .96.74 0 .54-3.39 5.28-3.4 4.73-3.4 4.86 0 .33 1.96.33 1.95 0 2.61-.36.66-.36 1.22-1.17.56-.8 1.03-.8.38 0 .38.59v.34q0 1.77-.26 2.28-.26.52-1.12.52h-.71l-.37-.02-2.2-.03-1.1-.02h-2.94l-.74.02q-.66 0-.72-.02-.6-.1-.6-.5m17.84-16.68v.29q0 .58-.49 1.08-.5.49-.98.49-.11.03-.18.03l-.29.03q-.65 0-1.18-.44-.52-.43-.52-1.12v-.24q0-.68.55-1.15.55-.47 1.26-.47h.07l.44.05q.41 0 .85.45.45.44.45.89zm-4.19 6.17q-.69-.33-.69-.62t.28-.46q.96-.58 3.05-.58h.38q.71 0 .8.66.06.36.06 4.79 0 4.44.18 5.09.19.66.88 1 .7.35.7.71 0 .5-3.27.5l-.39.01h-1.61q-.96 0-.96-.47 0-.4.58-.76.59-.37.81-.82.25-.49.25-2.28l.02-.42v-.41l.01-.62v-.41l.01-.41q0-3.13-.2-3.65t-.89-.85m13.29-.98h-.34q-.7 0-1.36.8-.66.8-.66 1.87l-.03.21-.01.33v.34l.01.11q0 1.37.6 2.21.59.85 1.76.85h.09q.91 0 1.56-.71.65-.72.65-1.89v-.51q-.04-.32-.04-.52 0-1.25-.7-2.17-.69-.92-1.53-.92m-.53 11.72h-.64q-.93 0-1.57.64-.65.65-.65 1.62v.11q0 1.12.88 1.76.89.65 2.42.65h.34q1.85 0 2.97-.84 1.12-.85 1.12-1.98l-.02-.11q0-.75-.62-1.2-.62-.46-1.46-.46-.53-.06-.76-.06l-.45-.04h-.23l-.79-.06zm7.46-11.87q0 .75-.95.96-.94.2-.94.78l.03.28.06.31.06.35q.07.43.07 1.22t-.45 1.64q-1.25 2.33-4.82 2.55-1.15.08-1.47.2-.68.27-.68.89t1.01.87q.15.04 2.63.25 2.47.19 3.3.62 1.76.87 1.76 2.51 0 2.17-1.93 3.52-1.93 1.36-5.06 1.36-2.2 0-3.66-.84-.68-.38-1.09-1-.42-.61-.42-1.27 0-1.17.7-1.95 1.12-1.24 1.12-1.32 0-.08-.49-.7-.48-.62-.48-1.29t.64-1.46q.64-.78.64-.87 0-.1-.8-1.35-.79-1.26-.79-2.4 0-1.13.49-2.01 1.39-2.52 5.16-2.52h.38l1.83.12.67.02q.35.02.7.02l1.4-.1q1.38 0 1.38.61m-85.2 20.97h.55q2.36 0 2.36 2.65 0 .7-.3.7-.17 0-.81-.39t-1.06-.53q-1.87-.65-3.32-.65-1.45 0-1.99.71-.76.99-.76 3.64 0 .95.65 1.41.65.46 1.48.46.84 0 1.7-.57.87-.57.88-.57.66 0 .9.51.25.51.25 1.67 0 2.05-.94 2.05-.25 0-1.04-.64t-1.67-.64q-1.52 0-2.02.65-.33.42-.33 2.53t.75 3.08q.42.54 2.02.54 1.59 0 3.72-.68.59-.19.94-.44.36-.25.73-.53.37-.29.46-.29.45 0 .45.45v.42q0 1.02-.35 1.67-.35.65-.64.84-.54.34-4.3.34h-1.74l-.58-.01q-4.97 0-5.73-.11-.77-.12-.77-.59 0-.3.72-.76.71-.47.92-1.16.21-.7.21-5.48l.05-5.15q0-2.53-.31-3.14-.15-.28-.82-.63-.67-.36-.67-.63 0-.53.85-.66.36-.06 5.61-.06zm14.62 12.45q1.04.98 1.04 2.49 0 1.51-1.24 2.59-1.24 1.07-3.42 1.07h-.36q-2.49 0-3.8-.62-.72-.34-.72-1.53v-.33q0-1.51.56-1.51.48 0 1.13.89.64.89 1.08 1.19.84.58 1.98.58 1.14 0 1.68-.48t.54-1.27q0-.79-.92-1.47-.49-.35-2.28-1.12-1.78-.76-2.66-1.6-.89-.84-.89-2.36 0-1.53 1.28-2.49 1.28-.96 3.15-.96h.36q2.45 0 3.44.58.51.31.51 1.69 0 1.39-.66 1.39-.37 0-1.01-.83-.63-.82-1.16-1.17-.53-.35-1.46-.35-.93 0-1.47.42-.54.42-.54 1.22t.99 1.43q.25.17 2.19 1.02 1.94.84 2.66 1.53m8.95 4.18 2.01-.31q.34 0 .34.54 0 .53-1.02 1.1-1.01.56-2.13.56h-.26q-.89 0-1.6-.46-.71-.46-1.04-1.13-.57-1.17-.57-4.45 0-3.28-.23-4.09-.23-.82-.6-1.13-.68-.55-.68-.6 0-.34.35-.58.91-.61 1-.69.08-.09 1.01-2.16.46-1.03 1.04-1.03.59 0 .79.42.05.11.23 1.15.18 1.04.51 1.34.33.3 1.46.57 1.13.27 1.13.77t-1.25.75q-1.25.25-1.52.65-.46.67-.46 3.79 0 3.13.29 3.94.37 1.05 1.2 1.05m6.56 2.05h-.07q-.69 0-1.25-.49-.57-.48-.57-1.27v-.12q0-.77.59-1.27.58-.5 1.19-.5h.24q.19.04.29.04.46 0 .96.5.5.5.5 1.16v.19q0 .6-.48 1.16-.48.56-1.1.56zm13.67-.31h-.43l-.43-.02-2.15-.02-.42-.02-2.15-.01q-1.95 0-2.33-.15-.6-.22-.6-.91 0-.68.98-1.87.03-.04 2.4-2.46t3.07-3.47q1.19-1.78 1.19-3.24 0-1.47-.76-2.3-.75-.83-1.83-.83-1.88 0-2.85 1.89-.68 1.33-1.25 1.33-.91 0-.91-1.02t.43-1.64q.43-.62 1.19-1.12 1.72-1.14 4.06-1.14 2.35 0 3.67 1.25 1.32 1.26 1.32 3.37 0 1.62-1.12 3.12t-3.73 3.8q-2.61 2.3-2.61 2.82 0 .39 2.18.39 2.19 0 3.02-.26.82-.26 1.48-.78.66-.51 1.04-.51t.38.92q0 1.83-.68 2.47-.45.41-2.16.41m8.51-9.11v1.04q0 2.88 1.01 4.98.39.82 1.04 1.37.64.54 1.34.54h.33q.71 0 1.32-.48.61-.48.96-1.22.95-1.99.95-4.34l.03-.39v-1.23q0-2.99-1.04-5.17-.37-.77-1.01-1.25-.64-.47-1.43-.47-1.59 0-2.54 1.84-.96 1.84-.96 4.78m3.73 9.37h-.51q-1.2 0-2.33-.58-2.35-1.21-3.29-4.22-.55-1.77-.55-3.72v-.27q0-3.89 2.03-6.45 1.74-2.18 4.55-2.18 2.81 0 4.6 2.09.96 1.13 1.48 2.82.52 1.7.52 3.35v.8q0 1.61-.51 3.24-1 3.19-3.42 4.46-1.23.66-2.57.66m18.2-.26h-.42l-.44-.02-2.15-.02-.42-.02-2.15-.01q-1.95 0-2.33-.15-.6-.22-.6-.91 0-.68.98-1.87.03-.04 2.4-2.46t3.07-3.47q1.19-1.78 1.19-3.24 0-1.47-.75-2.3-.76-.83-1.84-.83-1.88 0-2.84 1.89-.69 1.33-1.26 1.33-.91 0-.91-1.02t.43-1.64q.43-.62 1.2-1.12 1.71-1.14 4.06-1.14 2.34 0 3.66 1.25 1.32 1.26 1.32 3.37 0 1.62-1.12 3.12t-3.73 3.8q-2.61 2.3-2.61 2.82 0 .39 2.19.39 2.18 0 3.01-.26.82-.26 1.48-.78.66-.51 1.04-.51.39 0 .39.92 0 1.83-.69 2.47-.45.41-2.16.41m10.56-14.55h-.03q-1.99 0-1.99 2.52 0 1.14.41 1.44.21.14 1.48.14 2.84 0 4.5 1.35.99.8 1.49 1.86.49 1.07.49 2.04v.44q0 2.44-1.84 4.09-1.85 1.65-4.67 1.65h-.42q-1.51 0-2.82-.6-1.31-.61-1.31-1.51v-.34q0-.93 1.08-.93.45 0 1.54.81t2.26.81q1.53 0 2.49-1.36.67-.95.67-2.73 0-.74-.37-1.53t-.98-1.29q-1.13-.9-3.34-.9l-.4.03q-.25.01-.87.01-.63 0-.91-.47-.27-.46-.27-1.9t.35-3.16q.36-1.72.66-2.09.5-.62 3.8-.62 2.02 0 2.9-.16l.38-.07q.49-.11.7-.11.94 0 .94.98 0 1.71-2.07 1.71-.77 0-1.33-.03l-.85-.04q-1.26-.04-1.67-.04M90.065 109.813h-2.298c-1.397 0-1.397 2.096 0 2.096h2.298c1.415 0 1.415-2.114 0-2.114m-49.781 70.223a9.743 9.743 0 0 1 5.44-12.372l-.11-1.158c-.091-1.231.368-2.132 1.104-2.702-.221-10.074 3.088-20.626 9.191-29.964l-13.658 4.522c-20.369 6.949-33.219 11.305-36.086 27.354-.019.184-1.158 10.846-1.342 19.743h40.35a9.743 9.743 0 0 1-4.908-5.423M59.163 51.686c.68-2.72 1.048-6.01.551-10.441-.496-4.596 1.067-5.24 3.99-4.872 4.669.607 9.559 2.942 14.118 4.302 3.584 1.085 7.408 1.967 11.085 1.967 2.408 0 4.871-.368 7.298-.938 6.195-1.452 12.316-4.191 16.71-5.11 3.952-.846 5.699-.24 5.184 4.65a29.413 29.413 0 0 0 1.176 12.538q1.287.184 2.39.496-.68-1.801-1.176-4.044a27.575 27.575 0 0 1-.295-8.75c.736-6.802-2.867-7.997-7.72-6.967-4.412.919-10.534 3.676-16.784 5.128q-3.474.846-6.783.883a36.766 36.766 0 0 1-10.479-1.875c-2.757-.827-5.404-1.802-7.812-2.61-5.497-1.839-14.119-4.725-12.997 5.44a26.472 26.472 0 0 1-1.508 12.814q1.14-.313 2.464-.515zM47.545 66.981c-1.36.35-.846 2.39.515 2.059.937-.24 2.702.882 4.062 3.382-.35.423-.441 1.158-.202 1.967.368 1.269 1.397 2.317 2.298 2.243 1.985-.147.717-3.107.588-3.382-1.47-3.732-4.32-6.986-7.261-6.25m56.399 21.82c-1.066.294-.607 1.893.46 1.6 1.231-.35 2.573 1.231 2.72 2.39.11 1.102 1.765.918 1.655-.185-.24-2.15-2.537-4.448-4.835-3.805"></path><circle r="2.83" fill="#68b6ff" transform="translate(49.475 176.672)scale(1.8383)"></circle><path fill="#68b6ff" d="M105.654 63.157c-3.934 0-7.538 1.839-8.861 4.762-.607 1.341 1.415 2.26 2.022.919.68-1.508 2.5-2.813 4.927-3.273a3.125 3.125 0 1 0 3.345-.091c2.63.367 4.56 1.764 5.276 3.345.607 1.36 2.63.441 2.022-.919-1.305-2.886-4.78-4.743-8.731-4.743m18.088 13.475c.92.074 1.949-.974 2.317-2.243.239-.809.128-1.544-.203-1.967 1.36-2.5 3.126-3.603 4.045-3.382 1.378.35 1.893-1.71.514-2.059-2.922-.717-5.79 2.537-7.26 6.25-.111.294-1.38 3.254.606 3.401M91.94 84.868c-.552.404-1.158.698-3.07.698-1.894 0-2.482-.294-3.052-.698-1.231-.92-2.757-1.103-3.989-.184l-.368.312c-.974 1.048.589 2.464 1.545 1.434.551-.404 1.01-.276 1.562.129l.368.257c1.232.956 2.243 1.93 3.989 1.93s2.739-.974 3.99-1.93l.165-.147.147-.11c.46-.368.992-.552 1.544-.129.956 1.03 2.518-.404 1.562-1.434-1.121-1.286-3.088-1.103-4.375-.128M73.685 88.82c-2.279-.643-4.595 1.654-4.816 3.787-.129 1.103 1.526 1.287 1.655.184.128-1.14 1.47-2.721 2.72-2.39 1.066.312 1.508-1.287.441-1.6"></path><path fill="#68b6ff" d="M120.544 166.782q-.386-.9-.699-1.801a2.941 2.941 0 0 1 .313-2.85c-2.464-7.684-2.85-15.202-3.64-23.475-.24-2.481-.552-4.798-1.103-6.967l-1.655-.551q0-.258-.128-.478l-2.574-7.17-2.022-5.57-.184-.404-.294-.331-.735-.717 1.58-6.875.037-.147a29.413 29.413 0 0 0 10.148-14.302q1.47-4.155 2.206-9.43c4.412 1.065 7.445-2.446 11.158-9.523l.11-.257.11-.184c2.648-5.331 3.181-12.593-1.36-14.468-2.297-.937-4.595-.184-6.47 1.158.551-3.64 2.812-6.838 3.364-10.533q.184-1.011.184-2.206c0-17.372-2.243-33.384-15.405-41.638-5.865-3.676-13.788-5.717-24.431-5.735h-.313c-12.868.018-21.765 3.015-27.85 8.254C50.78 19.314 48.942 33.947 48.942 49.7q0 1.268.184 2.39c.57 3.566 2.757 6.71 3.327 10.24-1.875-1.27-3.989-1.82-6.03-1.159-4.945 1.654-4.32 9.375-1.507 14.853l.055.092.037.092c3.658 6.967 6.691 10.479 11.03 9.523a42.28 42.28 0 0 0 4.412 14.467 27.575 27.575 0 0 0 7.812 9.136l.019.258 1.6 6.875-.828.79a1.838 1.838 0 0 0-.276.442l-.073.055-2.06 5.735-2.573 7.133-.129.496-2.022.699c-7.592 9.743-11.673 21.14-11.47 31.766.735.46 1.286 1.25 1.378 2.39q.037.624.11 1.231a9.743 9.743 0 0 1 1.839 18.236h57.465c-1.434-8.033 1.765-14.486 9.283-18.659M62.288 99.17a40.443 40.443 0 0 1-4.228-14.45l-.147-.772c-.24-.716-1.085-.845-1.618-.477l-.22.073c-2.85.92-5.166-.662-9.192-8.327l-.073-.147c-2.997-5.81-2.262-11.03.294-11.894 1.746-.552 3.97.275 6.01 2.518.865 2.997 2.023 5.24 2.795 6.508q-.643-2.04-.956-4.596c-.128-1.14-.11-2.886-1.121-3.64-.827-.735-1.47-1.507-1.47-2.61v-4.044q0-.589.275-1.067c-.588-1.47-1.158-2.941-1.416-4.504a12.868 12.868 0 0 1-.165-2.022c0-15.809 1.893-29.504 11.232-37.556 5.57-4.78 13.916-7.703 26.472-7.721h.312C99.44 4.46 106.94 6.464 112.4 9.865c12.06 7.574 14.339 22.39 14.339 39.836q0 1.011-.129 1.912a20.221 20.221 0 0 1-1.434 4.632q.258.478.258 1.067v4.044c0 1.103-.625 1.893-1.453 2.61-1.231.92-1.305 5.515-1.617 6.875l-.258 1.011a28.19 28.19 0 0 0 2.519-5.9c1.415-1.655 4.007-3.677 6.397-2.703 2.39.975 2.996 5.993.257 11.563l-.073.166-.129.239c-4.044 7.702-6.379 9.246-9.246 8.309l-.552-.184-.165-.019c-.625-.165-1.103.184-1.232.68l-.037.221a47.796 47.796 0 0 1-2.26 10.221c-3.273 9.357-9.156 14.284-15.92 16.655q-2.446.883-5 1.287c-3.402.607-2.28 1.93-7.758 1.93a10.294 10.294 0 0 1-5.975-1.323c-1.838-.938-4.191-1.03-6.195-1.692A24.45 24.45 0 0 1 62.288 99.17m4.044 68.366-4.632.9-1.122-5.79-5.79 1.103-.92-4.614 5.81-1.121-1.14-5.791 4.65-.92 1.104 5.81 5.809-1.14.9 4.651-5.79 1.103zm13.291 14.045L69.33 147.425q.22.11.46.129h.238c2.886-.055 4.651-1.839 6.122-4.008 1.397-2.077 2.702-4.853 4.687-7.647l.331-.46 4.302 6.839zm-.515-46.877c-2.003 2.794-3.308 5.588-4.706 7.684-1.176 1.728-2.26 2.758-3.75 3.015L66.13 131.21l2.758-7.702 1.71-4.78.11-.11a16.545 16.545 0 0 0 3.75 4.89h.882-.882a20.221 20.221 0 0 0 11.121 4.65 25.736 25.736 0 0 0-6.47 6.527m-1.104-11.196a14.155 14.155 0 0 1-6.066-7.463l-1.158-5.037q2.537 1.434 5.331 2.335c1.82.588 4.302.753 5.883 1.562 2.518 1.287 3.823 1.563 6.912 1.563 3.088 0 4.393-.276 6.93-1.563 1.47-.735 4.504-1.066 6.544-1.783q2.335-.827 4.523-2.022l-1.159 4.963a12.5 12.5 0 0 1-6.084 7.445 22.06 22.06 0 0 1-10.81 2.721c-3.897 0-7.72-.809-10.846-2.72m25.259 0a16.545 16.545 0 0 0 3.731-4.872l.074.055 1.728 4.816 2.794 7.74-4.54 14.154c-1.38-.238-2.409-1.12-3.493-2.628-2.5-3.53-3.769-6.93-6.839-10.46q-1.856-2.206-4.595-4.136a19.302 19.302 0 0 0 11.14-4.67m-5.184 58.072-5.846-39.284 4.283-6.82c1.967 2.757 3.364 5.772 5.331 8.53 1.416 1.985 3.144 3.529 5.864 3.584q.331.037.644-.129z"></path><path fill="#68b6ff" d="M84.568 70.437c1.6-4.155 1.563-6.195 4.339-6.195 2.775 0 2.757 2.04 4.338 6.195 1.618 4.228 6.066 9.89 16.526 8.86 11.104-1.084 11.435-8.456 11.839-11.838.276-2.15.294-3.493 1.6-4.449.735-.643.974-1.103.974-1.654v-4.044q-.019-.589-.478-.92c-1.397-.808-6.232-1.967-13.567-1.69-8.567.312-14.118 2.812-16.067 3.492-1.893.662-4.926.662-5.165.662-.24 0-3.273 0-5.148-.662-1.967-.68-7.518-3.18-16.085-3.493-7.353-.276-12.17.883-13.566 1.71a1.103 1.103 0 0 0-.478.9v4.045c0 .551.257 1.01.974 1.654 1.323.956 1.323 2.298 1.6 4.449.404 3.364.735 10.754 11.838 11.839 10.478 1.029 14.909-4.633 16.526-8.861m22.96-12.905c6.343-.46 11.95.129 11.894 9.523-.055 7.353-5.202 10.956-11.563 10.956-7.923 0-12.61-5.13-13.107-10.7-.496-5.698-1.948-8.713 12.777-9.779M58.39 67.055c-.055-9.376 5.551-9.982 11.894-9.523 14.743 1.066 13.272 4.081 12.776 9.78-.497 5.57-5.184 10.699-13.107 10.699-6.36 0-11.508-3.603-11.563-10.956"></path><path fill="#68b6ff" d="M108.264 60.75c2.757.495 5.276 1.507 7.39 2.904a1.838 1.838 0 0 0 2.206-.019c-1.103-4.908-5.019-5.239-10.24-4.853-7.463.533-10.239 1.563-11.25 2.72q-.312.387-.478.92.478.037 1.03-.202a18.383 18.383 0 0 1 11.342-1.47m-19.376 41.159c7.63 0 8.383-2.427 13.052-6.747l.092-.092q1.14-.312 2.335-.809c1.323-.533.533-2.481-.772-1.967-2.813 1.122-4.964 1.397-9.229 1.545 0 0-2.206.091-5.46.11a163.609 163.609 0 0 1-5.46-.11c-4.264-.148-6.415-.423-9.19-1.545-1.324-.514-2.115 1.434-.81 1.967q1.195.497 2.335.79l.092.111c4.65 4.302 5.405 6.747 13.015 6.747m-5.515-5.956a156.256 156.256 0 0 0 11.067 0 56.987 56.987 0 0 0 3.915-.24q-1.103 1.159-2.095 1.986c-1.103.68-4.192 1.085-7.39 1.103-3.144-.018-6.177-.423-7.317-1.085-.698-.551-1.342-1.231-2.095-2.003q1.673.165 3.915.239M80.91 62.2q.551.276 1.03.221-.13-.533-.497-.92c-1.011-1.157-3.787-2.205-11.25-2.738-5.221-.368-9.137-.037-10.24 4.871a1.838 1.838 0 0 0 2.206.019 20.221 20.221 0 0 1 7.39-2.905c4.136-.735 8.034-.11 11.361 1.47m46.215 104.085c1.489 3.659-3.97 6.14-5.736 2.427-6.673 3.768-9.43 9.449-7.996 16.728h35.975a29.413 29.413 0 0 0-2.26-8.272c-4.174-9.853-10.994-13.53-19.983-10.883"></path><path fill="#68b6ff" d="M171.501 165.698c-2.83-16.049-15.68-20.405-36.049-27.354l-15.9-5.258c.881 4.596.973 9.376 1.433 14.008.423 4.357 1.103 8.971 2.665 13.787.846.22 1.618.846 2.023 1.949q.257.772.588 1.526c10.202-3.125 18.199 1.121 22.795 12.004q2.04 4.835 2.426 9.081h21.38c-.184-8.897-1.324-19.56-1.36-19.725M69.217 68.158a3.125 3.125 0 1 0 4.854-2.593c2.444.46 4.264 1.765 4.926 3.254.607 1.36 2.647.441 2.022-.919-1.287-2.886-4.908-4.743-8.842-4.743-3.97 0-7.427 1.857-8.732 4.762-.625 1.341 1.397 2.26 2.022.919.717-1.6 2.629-2.978 5.276-3.364a3.12 3.12 0 0 0-1.526 2.684"></path></svg></svg>