<svg xmlns="http://www.w3.org/2000/svg" version="1.1" xmlns:xlink="http://www.w3.org/1999/xlink" width="1500" height="1500" viewBox="0 0 1500 1500"><rect width="1500" height="1500" x="0" y="0" id="background" stroke="transparent" fill="#ffffff"></rect><svg xml:space="preserve" width="1000" height="1000" data-version="2" data-id="lg_coTOc6fJolWOJ9d6YW" viewBox="0 0 503 548" x="250" y="250"><rect width="100%" height="100%" fill="transparent"></rect><path fill="#68b6ff" d="M252.38 317.528h-6.667c-4.054 0-4.054 6.081 0 6.081h6.668c4.107 0 4.107-6.134 0-6.134m-144.453 203.77a28.272 28.272 0 0 1 15.79-35.9l-.32-3.36c-.267-3.575 1.066-6.188 3.2-7.842-.64-29.232 8.961-59.85 26.671-86.95l-39.634 13.123c-59.104 20.164-96.39 32.806-104.712 79.375-.053.533-3.36 31.472-3.894 57.29h117.088a28.272 28.272 0 0 1-14.243-15.736m54.837-372.388c1.974-7.894 3.04-17.443 1.6-30.298-1.44-13.336 3.094-15.203 11.576-14.136 13.549 1.76 27.738 8.535 40.967 12.482 10.402 3.147 21.497 5.708 32.166 5.708 6.988 0 14.136-1.067 21.177-2.72 17.977-4.215 35.74-12.163 48.489-14.83 11.469-2.454 16.536-.694 15.043 13.496a85.349 85.349 0 0 0 3.414 36.38q3.734.533 6.934 1.44-1.973-5.228-3.414-11.736a80.015 80.015 0 0 1-.853-25.391c2.134-19.737-8.322-23.204-22.404-20.217-12.803 2.667-30.566 10.669-48.702 14.883q-10.082 2.454-19.684 2.56a106.686 106.686 0 0 1-30.406-5.44c-8.001-2.401-15.682-5.228-22.67-7.575-15.95-5.335-40.968-13.71-37.714 15.789a76.814 76.814 0 0 1-4.374 37.18q3.307-.907 7.148-1.493zm-33.713 44.382c-3.947 1.013-2.454 6.934 1.494 5.974 2.72-.693 7.841 2.56 11.789 9.815-1.014 1.227-1.28 3.36-.587 5.708 1.067 3.68 4.054 6.721 6.668 6.508 5.76-.427 2.08-9.015 1.707-9.815-4.268-10.829-12.536-20.27-21.07-18.137m163.656 63.318c-3.094.854-1.76 5.495 1.333 4.641 3.574-1.013 7.468 3.574 7.895 6.935.32 3.2 5.12 2.667 4.8-.534-.693-6.24-7.36-12.909-14.028-11.042"></path><circle r="2.83" fill="#68b6ff" transform="translate(134.6 511.54)scale(5.3343)"></circle><path fill="#68b6ff" d="M297.615 182.143c-11.415 0-21.87 5.335-25.71 13.816-1.761 3.894 4.107 6.561 5.867 2.667 1.974-4.374 7.255-8.161 14.296-9.495a9.068 9.068 0 1 0 9.708-.266c7.628 1.067 13.23 5.12 15.31 9.708 1.76 3.947 7.628 1.28 5.867-2.667-3.787-8.375-13.869-13.763-25.338-13.763m52.49 39.1c2.667.214 5.654-2.826 6.721-6.507.694-2.347.374-4.48-.587-5.708 3.948-7.254 9.069-10.455 11.736-9.815 4 1.014 5.494-4.96 1.493-5.974-8.481-2.08-16.803 7.361-21.07 18.136-.32.854-4 9.442 1.76 9.869m-92.336 23.898c-1.6 1.173-3.361 2.027-8.909 2.027-5.494 0-7.201-.854-8.855-2.027-3.574-2.668-8.001-3.201-11.575-.534l-1.067.907c-2.827 3.04 1.707 7.148 4.48 4.16 1.601-1.173 2.935-.8 4.535.374l1.067.747c3.574 2.774 6.508 5.6 11.575 5.6s7.948-2.826 11.576-5.6l.48-.427.427-.32c1.333-1.067 2.88-1.6 4.48-.373 2.774 2.987 7.308-1.174 4.535-4.161-3.254-3.734-8.962-3.2-12.696-.373m-53.023 11.468c-6.615-1.867-13.336 4.801-13.976 10.989-.373 3.2 4.428 3.734 4.801.533.373-3.307 4.267-7.894 7.895-6.934 3.094.907 4.374-3.734 1.28-4.641"></path><path fill="#68b6ff" d="M340.823 482.838q-1.12-2.614-2.027-5.228a8.535 8.535 0 0 1 .907-8.268c-7.148-22.297-8.268-44.115-10.562-68.119-.693-7.201-1.6-13.922-3.2-20.217l-4.801-1.6q0-.747-.374-1.387l-7.468-20.804-5.867-16.163-.534-1.173-.853-.96-2.134-2.08 4.587-19.951.107-.427a85.349 85.349 0 0 0 29.445-41.5q4.268-12.056 6.402-27.366c12.802 3.094 21.604-7.094 32.379-27.631l.32-.747.32-.534c7.681-15.47 9.228-36.54-3.947-41.98-6.668-2.721-13.336-.534-18.777 3.36 1.6-10.562 8.161-19.844 9.762-30.565q.533-2.934.533-6.402c0-50.409-6.508-96.87-44.701-120.822-17.017-10.668-40.008-16.59-70.893-16.643h-.907c-37.34.054-63.158 8.749-80.815 23.951-29.338 25.338-34.673 67.8-34.673 113.514q0 3.681.534 6.935c1.653 10.349 8.001 19.47 9.655 29.712-5.441-3.68-11.576-5.28-17.497-3.36-14.349 4.8-12.535 27.204-4.374 43.1l.16.267.107.267c10.615 20.217 19.417 30.405 32.006 27.632a122.689 122.689 0 0 0 12.802 41.98 80.015 80.015 0 0 0 22.67 26.512l.054.747 4.641 19.95-2.4 2.294a5.334 5.334 0 0 0-.8 1.28l-.214.16-5.974 16.643-7.468 20.697-.374 1.44-5.868 2.028c-22.03 28.271-33.872 61.344-33.286 92.176 2.134 1.334 3.734 3.628 4.001 6.935q.107 1.814.32 3.574a28.272 28.272 0 0 1 5.335 52.916h166.75c-4.161-23.31 5.12-42.034 26.938-54.143M171.78 286.642a117.355 117.355 0 0 1-12.27-41.927l-.426-2.24c-.694-2.081-3.148-2.454-4.694-1.388l-.64.214c-8.269 2.667-14.99-1.92-26.672-24.165l-.213-.426c-8.695-16.857-6.562-32.006.853-34.513 5.068-1.6 11.522.8 17.443 7.308 2.507 8.695 5.868 15.203 8.108 18.883q-1.867-5.92-2.774-13.336c-.373-3.307-.32-8.374-3.253-10.561-2.4-2.134-4.268-4.375-4.268-7.575V165.18q0-1.707.8-3.094c-1.707-4.267-3.36-8.534-4.107-13.069a37.34 37.34 0 0 1-.48-5.867c0-45.875 5.494-85.616 32.592-108.98 16.163-13.87 40.381-22.35 76.814-22.404h.907c30.086.053 51.85 5.868 67.692 15.736C352.185 49.48 358.8 92.474 358.8 143.096q0 2.934-.374 5.548a58.677 58.677 0 0 1-4.16 13.442q.747 1.387.747 3.094v11.736c0 3.2-1.814 5.494-4.215 7.575-3.574 2.667-3.787 16.002-4.694 19.95l-.747 2.934a81.8 81.8 0 0 0 7.308-17.123c4.108-4.801 11.63-10.669 18.564-7.842 6.934 2.827 8.695 17.39.747 33.553l-.214.48-.373.693c-11.736 22.351-18.51 26.832-26.832 24.111l-1.6-.533-.48-.053c-1.814-.48-3.2.533-3.574 1.973l-.107.64a138.692 138.692 0 0 1-6.56 29.66c-9.496 27.15-26.566 41.447-46.196 48.328q-7.095 2.56-14.51 3.734c-9.868 1.76-6.614 5.601-22.51 5.601a29.872 29.872 0 0 1-17.336-3.84c-5.335-2.721-12.163-2.988-17.977-4.908a70.946 70.946 0 0 1-41.928-35.207m11.736 198.383-13.443 2.614-3.254-16.803-16.803 3.2-2.667-13.389 16.857-3.254-3.308-16.803 13.496-2.667 3.2 16.857 16.857-3.308 2.614 13.496-16.803 3.2zm38.567 40.754-29.872-99.111q.64.32 1.333.373h.694c8.375-.16 13.496-5.334 17.763-11.629 4.054-6.027 7.841-14.082 13.602-22.19l.96-1.334 12.483 19.844zm-1.494-136.025c-5.814 8.109-9.602 16.217-13.656 22.298-3.414 5.014-6.56 8.001-10.882 8.748l-13.122-41.18 8.001-22.351 4.961-13.87.32-.32a48.009 48.009 0 0 0 10.882 14.19h2.56-2.56a58.677 58.677 0 0 0 32.273 13.495 74.68 74.68 0 0 0-18.777 18.937m-3.2-32.486a41.074 41.074 0 0 1-17.604-21.657l-3.36-14.616q7.361 4.16 15.47 6.774c5.28 1.707 12.482 2.188 17.069 4.535 7.308 3.734 11.095 4.534 20.057 4.534 8.962 0 12.749-.8 20.11-4.534 4.268-2.134 13.07-3.094 18.99-5.175q6.775-2.4 13.123-5.867l-3.36 14.402a36.273 36.273 0 0 1-17.657 21.604 64.012 64.012 0 0 1-31.366 7.895c-11.309 0-22.404-2.347-31.472-7.895m73.293 0a48.009 48.009 0 0 0 10.829-14.136l.213.16 5.014 13.976 8.108 22.458-13.175 41.074c-4.001-.694-6.988-3.254-10.136-7.628-7.254-10.242-10.935-20.11-19.843-30.353q-5.388-6.4-13.336-12.002a56.01 56.01 0 0 0 32.326-13.549m-15.043 168.51-16.963-113.993 12.429-19.79c5.708 8 9.762 16.75 15.47 24.75 4.107 5.762 9.121 10.242 17.016 10.403q.96.106 1.867-.374z"></path><path fill="#68b6ff" d="M236.431 203.267c4.64-12.055 4.534-17.976 12.589-17.976s8.001 5.92 12.589 17.976c4.694 12.27 17.603 28.699 47.955 25.712 32.22-3.148 33.18-24.538 34.353-34.353.8-6.241.854-10.135 4.641-12.91 2.134-1.866 2.827-3.2 2.827-4.8V165.18q-.053-1.707-1.387-2.667c-4.054-2.347-18.083-5.707-39.367-4.907-24.858.906-40.967 8.161-46.622 10.135-5.494 1.92-14.296 1.92-14.989 1.92-.693 0-9.495 0-14.936-1.92-5.708-1.974-21.817-9.229-46.675-10.135-21.337-.8-35.313 2.56-39.367 4.96a3.2 3.2 0 0 0-1.387 2.614v11.736c0 1.6.747 2.934 2.827 4.8 3.84 2.775 3.84 6.669 4.64 12.91 1.174 9.761 2.135 31.205 34.354 34.353 30.405 2.987 43.26-13.443 47.955-25.712m66.625-37.447c18.404-1.333 34.673.374 34.513 27.632-.16 21.337-15.096 31.793-33.552 31.793-22.991 0-36.594-14.883-38.034-31.046-1.44-16.536-5.654-25.285 37.073-28.379m-142.585 27.632c-.16-27.205 16.11-28.965 34.513-27.632 42.78 3.094 38.513 11.843 37.073 28.379-1.44 16.163-15.043 31.046-38.034 31.046-18.456 0-33.392-10.456-33.552-31.793"></path><path fill="#68b6ff" d="M305.19 175.156c8.002 1.44 15.31 4.374 21.444 8.428a5.334 5.334 0 0 0 6.401-.054c-3.2-14.242-14.562-15.202-29.712-14.082-21.657 1.547-29.712 4.534-32.646 7.895q-.907 1.12-1.387 2.667 1.387.106 2.988-.587a53.343 53.343 0 0 1 32.912-4.267M248.967 294.59c22.137 0 24.324-7.04 37.873-19.576l.267-.267q3.307-.907 6.774-2.347c3.841-1.547 1.547-7.202-2.24-5.708-8.161 3.254-14.403 4.054-26.778 4.48 0 0-6.401.268-15.843.321a474.753 474.753 0 0 1-15.843-.32c-12.375-.427-18.617-1.227-26.671-4.48-3.841-1.495-6.135 4.16-2.347 5.707q3.467 1.44 6.774 2.294l.267.32c13.496 12.482 15.683 19.576 37.767 19.576m-16.003-17.283a453.416 453.416 0 0 0 32.112 0 165.363 165.363 0 0 0 11.362-.693q-3.2 3.36-6.08 5.76c-3.201 1.975-12.163 3.148-21.445 3.202-9.121-.054-17.923-1.227-21.23-3.148-2.027-1.6-3.894-3.574-6.081-5.814q4.854.48 11.362.693m-7.148-97.937q1.6.8 2.987.64-.373-1.547-1.44-2.667c-2.934-3.361-10.989-6.402-32.646-7.949-15.15-1.066-26.512-.106-29.712 14.136a5.334 5.334 0 0 0 6.4.054 58.677 58.677 0 0 1 21.445-8.428c12.002-2.134 23.31-.32 32.966 4.267M359.92 481.451c4.32 10.615-11.522 17.817-16.643 7.041-19.363 10.936-27.365 27.419-23.204 48.542h104.392a85.349 85.349 0 0 0-6.561-24.004c-12.109-28.592-31.9-39.26-57.984-31.579"></path><path fill="#68b6ff" d="M488.69 479.69c-8.215-46.568-45.501-59.21-104.606-79.374l-46.141-15.256c2.56 13.336 2.827 27.205 4.16 40.648 1.227 12.642 3.201 26.031 7.735 40.007 2.454.64 4.694 2.454 5.868 5.654q.747 2.24 1.707 4.428c29.605-9.069 52.81 3.254 66.145 34.833q5.921 14.029 7.042 26.351h62.037c-.533-25.818-3.84-56.757-3.947-57.237m-296.8-283.091a9.068 9.068 0 1 0 14.082-7.522c7.095 1.334 12.376 5.121 14.296 9.442 1.76 3.947 7.682 1.28 5.868-2.667-3.734-8.375-14.243-13.763-25.658-13.763-11.522 0-21.55 5.388-25.338 13.816-1.814 3.894 4.054 6.561 5.868 2.667 2.08-4.64 7.628-8.641 15.31-9.761-2.668 1.6-4.428 4.48-4.428 7.788"></path></svg></svg>